<svg height="492pt" viewBox="-39 0 492 492.00126" width="492pt" xmlns="http://www.w3.org/2000/svg" xmlns:xlink="http://www.w3.org/1999/xlink"><linearGradient id="linear0" gradientUnits="userSpaceOnUse" x1="206.995144" x2="206.995144" y1="480.001264" y2="16.273264"><stop offset=".322" stop-color="#a163f5"/><stop offset=".466" stop-color="#b074ee"/><stop offset=".752" stop-color="#d8a1dd"/><stop offset=".898" stop-color="#efbad3"/></linearGradient><path d="m389.457031 228.933594c1.953125-17.320313 1.5-34.824219-1.347656-52.019532l21.601563-20.714843c1.816406-1.738281 2.351562-4.429688 1.34375-6.734375l-23.90625-54.640625c-1.015626-2.332031-3.394532-3.769531-5.933594-3.578125l-29.914063 2.199218c-10.648437-13.835937-23.367187-25.949218-37.707031-35.914062l.878906-29.886719c.078125-2.542969-1.460937-4.859375-3.835937-5.773437l-55.617188-21.46875c-2.363281-.910156-5.046875-.238282-6.703125 1.679687l-19.378906 22.460938c-17.320312-1.957031-34.828125-1.503907-52.023438 1.34375l-20.71875-21.597657c-1.742187-1.816406-4.429687-2.355468-6.734374-1.347656l-54.640626 23.90625c-2.332031 1.023438-3.765624 3.402344-3.578124 5.9375l2.199218 29.914063c-13.835937 10.644531-25.949218 23.363281-35.910156 37.703125l-29.890625-.878906c-2.546875-.089844-4.867187 1.453124-5.773437 3.835937l-21.464844 55.621094c-.910156 2.363281-.238282 5.042969 1.679687 6.699219l22.457031 19.382812c-1.953124 17.316406-1.5 34.824219 1.347657 52.015625l-21.601563 20.714844c-1.816406 1.742187-2.351562 4.429687-1.34375 6.734375l23.90625 54.640625c1.015625 2.339843 3.398438 3.777343 5.9375 3.578125l29.914063-2.199219c10.648437 13.839844 23.367187 25.953125 37.707031 35.914063l-.878906 29.890624c-.089844 2.535157 1.433594 4.851563 3.800781 5.773438l42.667969 16.476562v34.238282c0 13.667968 11.183594 25.160156 24.847656 25.160156h30.152344v18c0 3.316406 2.683594 6 6 6 3.3125 0 6-2.683594 6-6v-18h30.148437c13.664063 0 24.851563-11.492188 24.851563-25.15625v-33.28125l51.203125-22.417969c2.328125-1.019531 3.757812-3.402343 3.5625-5.933593l-2.207031-29.917969c13.839843-10.644531 25.949218-23.363281 35.910156-37.703125l29.886718.878906c2.546876.09375 4.871094-1.453125 5.773438-3.835938l21.464844-55.617187c.910156-2.363281.238281-5.042969-1.679688-6.699219zm-133.460937 132.96875v14.097656h-20v-79.15625c.160156-6.785156 5.714844-12.195312 12.5-12.175781 13.410156.007812 24.332031-10.769531 24.5-24.179688v-3.226562c4.0625-1.050781 7.765625-3.1875 10.703125-6.1875 9.257812-9.355469 9.203125-24.429688-.113281-33.722657-9.328126-9.296874-24.417969-9.296874-33.746094 0-4.488282 4.445313-7.011719 10.507813-7 16.824219 0 6.371094 2.476562 12.828125 6.980468 16.828125h.152344c3.082032 2.988282 6.875 5.140625 11.023438 6.257813v3.226562c-.160156 6.785157-5.714844 12.195313-12.5 12.179688-13.410156-.011719-24.332032 10.765625-24.5 24.175781v79.15625h-11v-175.8125c4.171875-1.039062 7.992187-3.175781 11.066406-6.1875 9.25-9.304688 9.21875-24.34375-.066406-33.613281-9.289063-9.265625-24.328125-9.265625-33.613282 0-9.289062 9.269531-9.320312 24.308593-.070312 33.613281 2.933594 3 6.625 5.136719 10.683594 6.1875v175.8125h-11v-79.15625c.03125-6.390625-2.480469-12.53125-6.984375-17.070312-4.5-4.535157-10.625-7.09375-17.015625-7.105469-3.210938-.011719-6.285156-1.304688-8.539063-3.589844-2.25-2.289063-3.5-5.378906-3.460937-8.589844v-3.226562c4.117187-1.121094 7.878906-3.273438 10.929687-6.261719h.035157c4.5-4 7-10.453125 7-16.824219-.050782-10.765625-7.308594-20.164062-17.710938-22.929687-10.402344-2.769532-21.371094 1.777344-26.765625 11.09375-5.390625 9.320312-3.871094 21.09375 3.714844 28.738281 2.972656 2.996094 6.703125 5.136719 10.796875 6.183594v3.226562c-.035156 6.390625 2.476562 12.535157 6.980468 17.070313 4.503907 4.535156 10.625 7.09375 17.019532 7.109375 3.210937.007812 6.28125 1.300781 8.535156 3.585937 2.253906 2.289063 3.5 5.378906 3.464844 8.589844v79.15625h-20v-14.097656c.074218-25.773438-10.632813-50.40625-29.527344-67.933594-35.238281-32.367188-47.003906-83.035156-29.636719-127.617188 17.367188-44.585937 60.308594-73.945312 108.152344-73.949218.363281 0 .730469 0 1.09375.003906 44.867187.417969 85.472656 26.660156 104.289063 67.394531 18.816406 40.734375 12.46875 88.664063-16.300782 123.09375-3.089844 3.707031-6.40625 7.21875-9.929687 10.511719-19.089844 17.679688-30.003907 42.476562-30.140625 68.496094zm2.308594-119.316406c-4.625-4.625-4.625-12.128907 0-16.753907 4.628906-4.628906 12.128906-4.628906 16.757812 0 4.625 4.625 4.625 12.128907-.003906 16.753907-2.210938 2.242187-5.226563 3.503906-8.375 3.503906-3.148438.003906-6.164063-1.257813-8.378906-3.5zm-59.273438-57.070313c-4.628906-4.625-4.628906-12.128906 0-16.753906 4.625-4.628907 12.128906-4.628907 16.753906 0 4.628906 4.625 4.628906 12.128906 0 16.753906-4.628906 4.621094-12.125 4.621094-16.753906.003906zm-59.277344 57.074219c-4.625-4.625-4.625-12.125 0-16.753906 4.628906-4.625 12.128906-4.625 16.753906 0 4.628907 4.628906 4.628907 12.128906 0 16.753906-2.210937 2.242187-5.226562 3.503906-8.375 3.503906-3.148437 0-6.167968-1.261719-8.378906-3.503906zm103.390625 213.410156h-72.296875c-7.144531-.179688-12.839844-6.011719-12.851562-13.15625v-1.84375h52.648437c3.3125 0 6-2.683594 6-6 0-3.3125-2.6875-6-6-6h-52.648437v-15h15.652344c3.3125 0 6-2.683594 6-6 0-3.3125-2.6875-6-6-6h-15.652344v-14h98v14h-48.117188c-3.3125 0-6 2.6875-6 6 0 3.316406 2.6875 6 6 6h48.117188v15h-14.082032c-3.3125 0-6 2.6875-6 6 0 3.316406 2.6875 6 6 6h14.082032v1.84375c-.011719 7.140625-5.710938 12.976562-12.851563 13.15625zm139.3125-153.652344-28.929687-.851562c-2.066406-.058594-4.019532.949218-5.167969 2.671875-10.152344 15.238281-22.875 28.601562-37.601563 39.480469-1.65625 1.226562-2.566406 3.210937-2.414062 5.265624l2.160156 28.941407-42.507812 18.609375v-34.652344c.152344-22.660156 9.679687-44.246094 26.320312-59.628906 26.847656-25.039063 41.671875-60.390625 40.714844-97.089844-1.550781-58.195312-42.152344-108.027344-98.835938-121.296875-56.683593-13.269531-115.1875 13.359375-142.410156 64.820313-27.21875 51.460937-16.304687 114.808593 26.566406 154.195312 16.421876 15.25 25.722657 36.675781 25.644532 59.089844v33.835937l-34.382813-13.28125.867188-28.929687c.066406-2.066406-.941407-4.023438-2.660157-5.171875-15.242187-10.148438-28.601562-22.871094-39.480468-37.597657-1.21875-1.660156-3.207032-2.574218-5.261719-2.417968l-28.9375 2.128906-20.527344-46.914062 20.882813-20.027344c1.453125-1.394532 2.109375-3.425782 1.75-5.410156-3.3125-18.0625-3.789063-36.527344-1.417969-54.734376.261719-2.003906-.5-4-2.027344-5.320312l-21.679687-18.707031 18.410156-47.710938 28.933594.851563c2.070312.074218 4.027344-.9375 5.167968-2.667969 10.148438-15.242187 22.871094-28.601563 37.597657-39.484375 1.65625-1.222656 2.570312-3.210938 2.417969-5.261719l-2.125-28.941406 46.914062-20.523437 20.027344 20.882812c1.394531 1.457031 3.425781 2.113281 5.410156 1.75 18.0625-3.308594 36.53125-3.785156 54.746094-1.414062 2 .253906 3.996094-.507813 5.3125-2.035157l18.707031-21.679687 47.710937 18.414062-.851562 28.929688c-.058594 2.066406.949219 4.019531 2.671875 5.167968 15.238281 10.148438 28.597656 22.875 39.480469 37.601563 1.222656 1.660156 3.210937 2.570313 5.265625 2.414063l28.9375-2.125 20.527343 46.914062-20.886718 20.027344c-1.457032 1.394531-2.113282 3.429687-1.75 5.410156 3.308594 18.0625 3.785156 36.527344 1.414062 54.738281-.257812 2 .503906 3.996094 2.03125 5.316407l21.675782 18.707031zm0 0" fill="url(#linear0)"/></svg>